/vscmnt/brussel_pixiu_data/_data_brussel/112/vsc11236/PredSimResults/SUBJ09opt3D/trackIG/worker_13.mot
version=1
nRows=11
nColumns=50
inDegrees=yes
endheader
                time	         pelvis_tilt	         pelvis_list	     pelvis_rotation	           pelvis_tx	           pelvis_ty	           pelvis_tz	       hip_flexion_r	     hip_adduction_r	      hip_rotation_r	        knee_angle_r	       ankle_angle_r	         mtp_angle_r	       hip_flexion_l	     hip_adduction_l	      hip_rotation_l	        knee_angle_l	       ankle_angle_l	         mtp_angle_l	    lumbar_extension	      lumbar_bending	     lumbar_rotation	 ercspn_r/activation	 intobl_r/activation	 extobl_r/activation	    abd_r/activation	    add_r/activation	hamstrings_r/activation	bifemsh_r/activation	glut_max_r/activation	iliopsoas_r/activation	rect_fem_r/activation	  vasti_r/activation	gastroc_r/activation	 soleus_r/activation	tib_ant_r/activation	 ercspn_l/activation	 intobl_l/activation	 extobl_l/activation	    abd_l/activation	    add_l/activation	hamstrings_l/activation	bifemsh_l/activation	glut_max_l/activation	iliopsoas_l/activation	rect_fem_l/activation	  vasti_l/activation	gastroc_l/activation	 soleus_l/activation	tib_ant_l/activation	
          1.01493202	         -6.90491894	         -4.01771155	          9.50118984	          1.82687764	          0.97015785	         -0.00417314	         34.77231809	          0.31600921	         -9.19999607	         -5.46463048	          7.51162803	          0.26066561	        -15.78481554	         -5.42566183	         -1.23688155	         -9.54286287	          0.48014493	         42.03576997	        -11.65780624	          3.50980695	         -8.66122024	          0.08869648	          0.13066050	          0.01598843	          0.02869675	          0.31130799	          0.14229093	          0.24662361	          0.02823633	          0.16423030	          0.00999999	          0.00999999	          0.02986105	          0.01468298	          0.39156658	          0.03100297	          0.01054458	          0.00999999	          0.02184544	          0.06051307	          0.02913636	          0.27635453	          0.01524902	          0.23733814	          0.00999999	          0.00999999	          0.34920716	          0.17629628	          0.01796786	
          1.02508134	         -6.85142083	         -4.13068902	          9.45363673	          1.84987789	          0.96771503	         -0.00362425	         34.73994674	          0.59583847	         -9.50891831	         -7.42428728	          6.95321519	          0.27952841	        -15.93436498	         -5.75137546	         -1.76305642	        -11.57536834	         -1.10272275	         43.91073097	        -11.17221875	          3.81273433	         -8.83188598	          0.07586372	          0.11175632	          0.01367520	          0.02454486	          0.39510860	          0.12170404	          0.21094169	          0.28549279	          0.14046919	          0.00999999	          0.00999999	          0.02554071	          0.01255862	          0.43280855	          0.05341279	          0.01169154	          0.01169153	          0.01868480	          0.12965645	          0.02492087	          0.23637110	          0.01304277	          0.42780213	          0.00999999	          0.00999999	          0.29868329	          0.15078944	          0.01536824	
          1.03523066	         -6.78042259	         -4.26547223	          9.36280339	          1.87300497	          0.96529623	         -0.00304192	         34.56890033	          0.85841410	         -9.59796323	         -9.53136408	          6.33314976	          0.22144347	        -15.75831892	         -6.11299784	         -2.31368513	        -14.24929767	         -2.57081511	         45.19488006	        -10.68643483	          4.14454050	         -8.94443650	          0.06488763	          0.09558723	          0.01169665	          0.19472125	          0.36112700	          0.10409570	          0.18042230	          0.42212834	          0.12014587	          0.00999999	          0.00999999	          0.02184544	          0.01169154	          0.50747580	          0.08262021	          0.00999999	          0.00999999	          0.01598145	          0.11089754	          0.02131527	          0.20217254	          0.01115572	          0.52978316	          0.00999999	          0.00999999	          0.25546929	          0.12897297	          0.01314474	
          1.04537998	         -6.69966953	         -4.39840305	          9.22485253	          1.89578847	          0.96326603	         -0.00235148	         34.37165320	          1.14162146	         -9.62574790	        -11.55506097	          5.58382812	          0.20178362	        -15.11199969	         -6.50228761	         -2.86487390	        -17.75032796	         -3.94362806	         45.62104209	        -10.25874098	          4.47467684	         -8.99635130	          0.07769989	          0.08175751	          0.01000436	          0.24447334	          0.30887854	          0.08903496	          0.15431850	          0.47014074	          0.10276297	          0.00999999	          0.08296155	          0.01868480	          0.00999999	          0.59141276	          0.09176641	          0.00999999	          0.00999999	          0.01366923	          0.09485270	          0.01823135	          0.17292188	          0.00999999	          0.48191565	          0.00999999	          0.00999999	          0.21850757	          0.11031295	          0.01124294	
          1.05552930	         -6.61212654	         -4.53648936	          9.03977727	          1.91792451	          0.96187467	         -0.00154985	         34.25809835	          1.45089314	         -9.57867931	        -13.66425411	          4.87352623	          0.14198188	        -13.95259494	         -6.93835332	         -3.40541071	        -22.03839398	         -5.48383714	         45.24064495	         -9.92308419	          4.81408392	         -8.98020621	          0.06645818	          0.06992870	          0.00999999	          0.28951472	          0.28829486	          0.07615323	          0.13199144	          0.48708504	          0.08789505	          0.00999999	          0.29530644	          0.01598145	          0.00999999	          0.63189125	          0.18418374	          0.00999999	          0.00999999	          0.01169154	          0.13959872	          0.01559360	          0.14790326	          0.00999999	          0.41219130	          0.00999999	          0.00999999	          0.18689353	          0.09435269	          0.00999999	
          1.06567862	         -6.52409891	         -4.65954578	          8.81354816	          1.93930180	          0.96130994	         -0.00067831	         34.13267891	          1.77217422	         -9.47898045	        -15.76195271	          4.64202034	          0.07206804	        -12.30619584	         -7.40542937	         -3.92198599	        -26.95904035	         -7.35923998	         43.87174445	         -9.68741156	          5.14066873	         -8.90328363	          0.05684290	          0.05981130	          0.00999999	          0.35617584	          0.24658389	          0.06513526	          0.11289470	          0.44881161	          0.07517825	          0.00999999	          0.47135815	          0.01366923	          0.00999999	          0.63298059	          0.19690713	          0.00999999	          0.00999999	          0.00999999	          0.19354596	          0.01333750	          0.12650437	          0.00999999	          0.35255478	          0.00999999	          0.00999999	          0.15985346	          0.08070158	          0.03994790	
          1.07582794	         -6.44232612	         -4.75614599	          8.54132373	          1.95981548	          0.96169472	          0.00022106	         33.87507528	          2.11611849	         -9.29586705	        -17.60986573	          4.86184097	          0.02231430	        -10.23033798	         -7.88253342	         -4.35917364	        -32.36231836	         -9.30121932	         40.90198585	         -9.55832496	          5.44367093	         -8.75909475	          0.04861878	          0.05115770	          0.00999999	          0.39875966	          0.27687995	          0.06687902	          0.09656091	          0.38387680	          0.06430134	          0.00999999	          0.46246305	          0.01169154	          0.00999999	          0.58426852	          0.23529598	          0.02589089	          0.00999999	          0.00999999	          0.16554342	          0.01140780	          0.10820151	          0.00999999	          0.30154656	          0.00999999	          0.00999999	          0.13672560	          0.06902554	          0.22314176	
          1.08597726	         -6.36983517	         -4.84653237	          8.23324087	          1.97943551	          0.96290650	          0.00106637	         33.48256153	          2.49278193	         -9.03908066	        -19.17162100	          5.42570665	         -0.00006613	         -7.84395333	         -8.32335380	         -4.55922175	        -38.05094867	        -10.62472815	         36.17601339	         -9.52660703	          5.75080478	         -8.54773454	          0.04158453	          0.04375612	          0.00999999	          0.38300482	          0.23765714	          0.05720285	          0.08259032	          0.32833687	          0.05499811	          0.00999999	          0.48311947	          0.00999999	          0.00999999	          0.50968703	          0.23561141	          0.04986043	          0.01000001	          0.01000000	          0.14159232	          0.00999999	          0.09254673	          0.00999999	          0.25791831	          0.00999999	          0.00999999	          0.11694391	          0.05903881	          0.23839025	
          1.09612658	         -6.30770527	         -4.92474799	          7.88490658	          1.99824642	          0.96481525	          0.00177559	         32.93863148	          2.88278186	         -8.75179763	        -20.38563828	          6.10050740	          0.00073996	         -5.30119313	         -8.62570704	         -4.47931206	        -43.73434552	        -10.52060493	         31.73255645	         -9.57978947	          6.05925456	         -8.26032818	          0.03556801	          0.03742541	          0.00999999	          0.34674505	          0.20327251	          0.05092354	          0.07064101	          0.28083255	          0.04704089	          0.00999999	          0.46551518	          0.00999999	          0.00999999	          0.43594468	          0.20798386	          0.04361945	          0.03421711	          0.00999999	          0.13074811	          0.00999999	          0.08040225	          0.00999999	          0.22060226	          0.06208467	          0.00999999	          0.10002427	          0.05049698	          0.27249522	
          1.10627590	         -6.25668163	         -4.97942689	          7.50001449	          2.01638438	          0.96737931	          0.00233893	         32.22939114	          3.26632390	         -8.44943742	        -21.22697270	          6.77667474	          0.03561110	         -2.68802750	         -8.77491793	         -4.22977093	        -49.14185127	         -9.94728257	         27.89518164	         -9.70482715	          6.35276276	         -7.90617233	          0.03042197	          0.03201064	          0.00999999	          0.29657740	          0.17386271	          0.06213945	          0.06042055	          0.24020123	          0.04023494	          0.00999999	          0.44065191	          0.00999999	          0.00999999	          0.37332053	          0.17789241	          0.05997843	          0.07705426	          0.00999999	          0.13281154	          0.00999999	          0.11795258	          0.00999999	          0.18868516	          0.20805101	          0.00999999	          0.08555260	          0.04319099	          0.27990875	
          1.11642522	         -6.21813923	         -4.99427279	          7.08696452	          2.03396913	          0.97051969	          0.00277157	         31.35685279	          3.62101072	         -8.12586336	        -21.69820601	          7.36211905	          0.11008219	         -0.06204860	         -8.76701597	         -3.89913015	        -54.08053049	         -9.39576126	         24.51083268	         -9.89093543	          6.60585203	         -7.50233637	          0.02602047	          0.02737929	          0.00999999	          0.25366809	          0.18167631	          0.07497971	          0.05167881	          0.20544851	          0.03441368	          0.00999999	          0.41141459	          0.00999999	          0.00999999	          0.32244904	          0.15215464	          0.06806817	          0.11495785	          0.00999999	          0.15142704	          0.00999999	          0.13312002	          0.00999999	          0.16138588	          0.34688014	          0.00999999	          0.07317470	          0.03694205	          0.26397204	
